<svg width="40" height="33" viewBox="0 0 40 33" fill="none" xmlns="http://www.w3.org/2000/svg">
<g filter="url(#filter0_d_186_2141)">
<path d="M16.4829 18.9738C16.6224 18.8411 16.8075 18.7671 17 18.7671H23C23.1924 18.7671 23.3775 18.8411 23.517 18.9737L26.485 21.7974L26.485 21.7975C26.7083 22.0099 26.9971 22.1585 27.3168 22.219C27.6366 22.2795 27.9677 22.2481 28.2668 22.1302C28.5657 22.0124 28.8152 21.8152 28.988 21.5692C29.1604 21.3236 29.2499 21.0391 29.25 20.7515C29.25 20.7514 29.25 20.7514 29.25 20.7513V19.5951L27.909 13.215L27.909 13.2148C27.7653 12.5305 27.3753 11.9069 26.7955 11.4544C26.215 11.0014 25.482 10.7501 24.721 10.75L16.4829 18.9738ZM16.4829 18.9738L13.515 21.7984C13.2917 22.0109 13.0029 22.1594 12.6832 22.2199C12.3634 22.2804 12.0323 22.2491 11.7332 22.1312C11.4343 22.0133 11.1848 21.8162 11.012 21.5701C10.8396 21.3246 10.7501 21.0401 10.75 20.7524C10.75 20.7524 10.75 20.7523 10.75 20.7523V19.5951L12.091 13.215L12.091 13.2148M16.4829 18.9738L12.091 13.2148M12.091 13.2148C12.2347 12.5305 12.6247 11.9069 13.2045 11.4544M12.091 13.2148L13.2045 11.4544M13.2045 11.4544C13.785 11.0014 14.518 10.7501 15.279 10.75L13.2045 11.4544ZM15.2791 10.75H24.7209H15.2791Z" stroke="#549BFD" stroke-width="1.5" stroke-linecap="round" stroke-linejoin="round"/>
<mask id="path-2-inside-1_186_2141" fill="white">
<path d="M19 10L19.5 11H21.5L22 10"/>
</mask>
<path d="M20.3416 9.32918C19.9712 8.58821 19.0701 8.28788 18.3292 8.65836C17.5882 9.02884 17.2879 9.92985 17.6584 10.6708L20.3416 9.32918ZM19.5 11L18.1584 11.6708C18.4124 12.179 18.9318 12.5 19.5 12.5V11ZM21.5 11V12.5C22.0682 12.5 22.5876 12.179 22.8416 11.6708L21.5 11ZM23.3416 10.6708C23.7121 9.92985 23.4118 9.02884 22.6708 8.65836C21.9299 8.28788 21.0288 8.58821 20.6584 9.32918L23.3416 10.6708ZM17.6584 10.6708L18.1584 11.6708L20.8416 10.3292L20.3416 9.32918L17.6584 10.6708ZM19.5 12.5H21.5V9.5H19.5V12.5ZM22.8416 11.6708L23.3416 10.6708L20.6584 9.32918L20.1584 10.3292L22.8416 11.6708Z" fill="#549BFD" mask="url(#path-2-inside-1_186_2141)"/>
</g>
<defs>
<filter id="filter0_d_186_2141" x="0" y="0" width="40" height="33" filterUnits="userSpaceOnUse" color-interpolation-filters="sRGB">
<feFlood flood-opacity="0" result="BackgroundImageFix"/>
<feColorMatrix in="SourceAlpha" type="matrix" values="0 0 0 0 0 0 0 0 0 0 0 0 0 0 0 0 0 0 127 0" result="hardAlpha"/>
<feOffset/>
<feGaussianBlur stdDeviation="5"/>
<feColorMatrix type="matrix" values="0 0 0 0 0.329412 0 0 0 0 0.607843 0 0 0 0 0.992157 0 0 0 0.5 0"/>
<feBlend mode="normal" in2="BackgroundImageFix" result="effect1_dropShadow_186_2141"/>
<feBlend mode="normal" in="SourceGraphic" in2="effect1_dropShadow_186_2141" result="shape"/>
</filter>
</defs>
</svg>
