<svg width="122" height="37" viewBox="0 0 122 37" fill="none" xmlns="http://www.w3.org/2000/svg">
<path d="M18.3272 0C8.66638 0 0.752062 7.3913 0 16.7845L9.85704 20.8283C10.6922 20.2615 11.7012 19.9294 12.7867 19.9294C12.884 19.9294 12.9809 19.9327 13.0769 19.9381L17.4604 13.6338C17.4604 13.6036 17.46 13.5744 17.46 13.5447C17.46 9.75001 20.5709 6.66281 24.3957 6.66281C28.22 6.66281 31.3309 9.75001 31.3309 13.5447C31.3309 17.3393 28.22 20.4269 24.3957 20.4269C24.3429 20.4269 24.2905 20.4257 24.2381 20.4244L17.9863 24.8506C17.9896 24.9311 17.9925 25.0132 17.9925 25.0949C17.9925 27.9436 15.6574 30.2603 12.7867 30.2603C10.267 30.2603 8.16002 28.4758 7.68275 26.1125L0.633578 23.2208C2.81618 30.8803 9.90817 36.4957 18.3272 36.4957C28.4844 36.4957 36.718 28.3256 36.718 18.2485C36.718 8.1697 28.484 0 18.3272 0Z" fill="#EDEEF2"/>
<path d="M11.5242 27.6888L9.26514 26.7627C9.66549 27.5898 10.3581 28.2824 11.2777 28.6627C13.2657 29.4845 15.5577 28.5485 16.3862 26.5742C16.7874 25.6197 16.7899 24.5657 16.3921 23.6087C15.995 22.6513 15.2459 21.9046 14.2826 21.5061C13.3268 21.1114 12.3029 21.1258 11.4033 21.4628L13.7368 22.4203C15.2031 23.0266 15.8965 24.6973 15.2854 26.1522C14.6755 27.6075 12.9905 28.2956 11.5242 27.6888Z" fill="#EDEEF2"/>
<path d="M29.0165 13.5444C29.0165 11.0162 26.9437 8.95898 24.3952 8.95898C21.8472 8.95898 19.7739 11.0162 19.7739 13.5444C19.7739 16.0731 21.8472 18.1294 24.3952 18.1294C26.9437 18.129 29.0165 16.0727 29.0165 13.5444ZM20.9313 13.5366C20.9313 11.6341 22.4858 10.0921 24.4031 10.0921C26.3205 10.0921 27.8749 11.6341 27.8749 13.5366C27.8749 15.4391 26.3205 16.981 24.4031 16.981C22.4858 16.981 20.9313 15.4386 20.9313 13.5366Z" fill="#EDEEF2"/>
<path d="M56.358 12.4861L55.1257 14.6352C54.1766 13.9773 52.8903 13.5813 51.7674 13.5813C50.484 13.5813 49.69 14.1085 49.69 15.0527C49.69 16.1999 51.1006 16.4668 53.1971 17.2134C55.4508 18.0042 56.7462 18.9336 56.7462 20.9816C56.7462 23.7838 54.5254 25.3575 51.3334 25.3575C49.7777 25.3575 47.9011 24.959 46.4585 24.0882L47.3573 21.7056C48.5293 22.3198 49.9311 22.6841 51.1808 22.6841C52.8654 22.6841 53.6661 22.0674 53.6661 21.1557C53.6661 20.1125 52.4451 19.799 50.4741 19.1514C48.2279 18.4072 46.6714 17.4308 46.6714 15.1641C46.6714 12.6078 48.7346 11.1396 51.7034 11.1396C53.7725 11.1396 55.4354 11.7902 56.358 12.4861Z" fill="#EDEEF2"/>
<path d="M65.9902 13.8443V25.1218H63.0888V13.8443H58.8774V11.375H70.1892V13.8443H65.9902Z" fill="#EDEEF2"/>
<path d="M76.3063 13.8368V16.9344H81.8589V19.4036H76.3063V22.6298H82.7486V25.1218H73.4058V11.375H82.7486V13.8368H76.3063Z" fill="#EDEEF2"/>
<path d="M89.2238 22.4525L88.3066 25.1218H85.2651L90.4597 11.375H93.3803L98.7216 25.1214H95.5774L94.6404 22.452H89.2238V22.4525ZM91.9036 14.654L90.0116 20.1581H93.8347L91.9036 14.654Z" fill="#EDEEF2"/>
<path d="M113.612 16.6885L109.821 24.7212H108.184L104.454 16.7603V25.1218H101.675V11.375H104.447L109.104 21.2983L113.594 11.375H116.391V25.1218H113.613L113.612 16.6885Z" fill="#EDEEF2"/>
<path d="M122 13.1087C122 14.2901 121.108 15.0264 120.084 15.0264C119.056 15.0264 118.162 14.2901 118.162 13.1087C118.162 11.9277 119.056 11.1963 120.084 11.1963C121.108 11.1963 122 11.9277 122 13.1087ZM118.484 13.1087C118.484 14.097 119.202 14.7179 120.084 14.7179C120.963 14.7179 121.677 14.097 121.677 13.1087C121.677 12.1174 120.963 11.5061 120.084 11.5061C119.204 11.5061 118.484 12.1248 118.484 13.1087ZM120.111 12.1314C120.607 12.1314 120.775 12.3921 120.775 12.6739C120.775 12.9321 120.62 13.1054 120.432 13.1936L120.878 14.0215H120.513L120.138 13.2877H119.751V14.0215H119.447V12.1314H120.111ZM119.754 13.0109H120.092C120.311 13.0109 120.44 12.8744 120.44 12.7028C120.44 12.5295 120.348 12.4181 120.091 12.4181H119.753V13.0109H119.754Z" fill="#EDEEF2"/>
</svg>
