<svg width="30" height="30" viewBox="0 0 30 30" fill="none" xmlns="http://www.w3.org/2000/svg">
<path d="M24.5775 23.2386L20.0002 18.8418C21.2002 17.3455 21.7814 15.4462 21.6242 13.5346C21.4669 11.6229 20.5832 9.84415 19.1548 8.56403C17.7263 7.28392 15.8617 6.59976 13.9443 6.65222C12.0269 6.70469 10.2024 7.4898 8.84612 8.84612C7.4898 10.2024 6.70469 12.0269 6.65222 13.9443C6.59976 15.8617 7.28392 17.7263 8.56403 19.1548C9.84415 20.5832 11.6229 21.4669 13.5346 21.6242C15.4462 21.7814 17.3455 21.2002 18.8418 20.0002L23.3941 24.3969C23.4716 24.475 23.5638 24.537 23.6653 24.5793C23.7669 24.6216 23.8758 24.6434 23.9858 24.6434C24.0958 24.6434 24.2047 24.6216 24.3063 24.5793C24.4078 24.537 24.5 24.475 24.5775 24.3969C24.7277 24.2415 24.8116 24.0338 24.8116 23.8177C24.8116 23.6016 24.7277 23.3939 24.5775 23.2386ZM14.1668 20.0002C13.0131 20.0002 11.8853 19.658 10.926 19.0171C9.96672 18.3761 9.21904 17.4651 8.77753 16.3992C8.33602 15.3332 8.2205 14.1604 8.44558 13.0288C8.67066 11.8972 9.22624 10.8578 10.042 10.042C10.8578 9.22624 11.8972 8.67066 13.0288 8.44558C14.1604 8.2205 15.3333 8.33602 16.3992 8.77753C17.4651 9.21904 18.3761 9.96672 19.0171 10.926C19.658 11.8853 20.0002 13.0131 20.0002 14.1668C20.0002 15.7139 19.3856 17.1977 18.2916 18.2916C17.1977 19.3856 15.7139 20.0002 14.1668 20.0002Z" fill="#CFD2E5"/>
</svg>
